<?xml version="1.0" encoding="utf-8"?>
<svg data-name="Layer 1" width="1041.32" height="572.19" viewBox="0 0 1041.32 572.19" xmlns="http://www.w3.org/2000/svg">
  <title>gamer</title>
  <path d="M 461.314 352.504 C 462.337 350.41 464.038 348.755 465.453 346.904 C 465.247 347.078 465.034 347.24 464.812 347.391 C 463.765 347.844 462.798 348.466 461.945 349.232 C 461.422 349.97 461.07 350.819 460.913 351.715 L 458.476 361.366 C 458.953 360.752 459.431 360.149 459.918 359.545 C 459.888 357.124 460.364 354.723 461.314 352.504 Z" fill="#FA8603" style=""/>
  <path d="M 557.38 352.533 C 557.366 351.262 557.112 350.006 556.634 348.833 C 556.14 347.878 555.515 347 554.78 346.223 L 552.716 343.827 C 551.664 369.264 549.427 394.768 554.072 419.679 C 554.828 423.71 555.832 427.859 558.373 431.043 C 559.054 431.717 559.557 432.555 559.836 433.478 C 563.659 418.286 561.509 401.829 559.253 386.111 C 559.034 384.405 558.698 382.716 558.249 381.057 C 556.552 374.685 556.156 368.027 557.083 361.492 C 557.47 358.523 557.569 355.522 557.38 352.533 Z" fill="#FA8603" style=""/>
  <path d="M 569.212 298.846 C 571.974 303.481 573.695 308.974 575.244 314.223 L 575.903 316.492 C 575.588 308.799 575.434 301.096 575.377 293.393 C 573.886 294.743 572.385 296.077 570.876 297.395 L 569.212 298.846 Z" fill="#FA8603" style=""/>
  <path d="M 576.964 249.278 C 577.987 247.184 579.688 245.529 581.102 243.678 C 580.897 243.852 580.683 244.014 580.462 244.165 C 579.416 244.618 578.447 245.24 577.595 246.006 C 577.073 246.744 576.72 247.593 576.562 248.489 L 574.125 258.14 C 574.603 257.526 575.081 256.923 575.569 256.319 C 575.538 253.898 576.013 251.497 576.964 249.278 Z" fill="#FA8603" style=""/>
  <path d="M 631.348 440.733 L 628.079 558.031 L 636.681 557.933 C 635.167 543.659 634.477 529.306 634.616 514.949 C 634.616 510.771 634.76 506.544 633.91 502.464 C 633.307 499.611 632.255 496.874 631.682 494.011 C 631.119 490.585 630.905 487.111 631.042 483.64 L 631.348 440.733 Z" fill="#FA8603" style=""/>
  <path d="M 557.428 440.801 C 557.561 440.47 557.696 440.158 557.819 439.827 C 558.269 438.639 558.67 437.441 559.043 436.234 L 558.966 436.37 C 558.211 437.636 557.389 438.854 556.539 440.051 C 556.845 440.285 557.141 440.538 557.428 440.801 Z" fill="#FA8603" style=""/>
  <path d="M 466.551 548.03 C 465.211 542.228 464.295 536.333 463.808 530.394 C 462.293 516.11 460.776 501.828 459.26 487.545 C 459.212 487.165 459.173 486.795 459.135 486.415 C 459.077 486.6 459.03 486.785 458.973 486.97 C 457.816 490.428 455.522 493.349 453.238 496.193 C 450.953 499.036 448.096 501.967 444.741 501.14 C 443.366 500.678 442.118 499.89 441.099 498.841 L 433.453 492.112 C 431.943 490.814 430.443 489.48 428.952 488.11 C 428.885 497.507 428.674 506.905 428.196 516.283 C 428.043 519.204 427.805 522.35 426.428 524.95 C 429.25 533.879 430.814 543.171 431.073 552.548 C 431.14 555.09 431.073 557.622 430.997 560.164 L 453.401 559.92 L 453.534 559.92 L 470.384 559.735 C 468.98 555.898 467.565 552.032 466.551 548.03 Z" fill="#FA8603" style=""/>
  <path d="M 428.703 451.085 C 429.18 451.689 429.659 452.292 430.146 452.906 L 427.709 443.294 C 427.551 442.398 427.199 441.549 426.677 440.811 C 425.824 440.045 424.856 439.423 423.81 438.97 C 423.588 438.819 423.374 438.657 423.169 438.483 C 424.584 440.334 426.285 441.989 427.308 444.083 C 428.253 446.291 428.728 448.677 428.703 451.085 Z" fill="#FA8603" style=""/>
  <path d="M 456.411 408.304 C 457.013 415.063 457.367 421.85 457.702 428.638 C 458.036 435.426 458.379 442.038 458.714 448.738 C 459.494 443.557 460.676 438.448 462.25 433.459 C 460.875 430.858 460.635 427.762 460.483 424.791 C 460.005 415.413 459.794 406.016 459.728 396.619 C 458.265 397.953 456.783 399.258 455.293 400.514 C 455.849 403.08 456.223 405.684 456.411 408.304 Z" fill="#FA8603" style=""/>
  <path d="M 329.435 477.69 C 327.179 493.407 325.001 509.826 328.853 525.057 C 329.132 524.134 329.635 523.296 330.314 522.622 C 332.857 519.438 333.86 515.289 334.615 511.258 C 339.26 486.347 337.025 460.843 335.973 435.406 L 333.937 437.802 C 333.185 438.563 332.541 439.428 332.026 440.373 C 331.542 441.533 331.28 442.775 331.252 444.034 C 331.063 447.017 331.162 450.011 331.547 452.974 C 332.493 459.525 332.106 466.205 330.411 472.597 C 329.969 474.269 329.644 475.971 329.435 477.69 Z" fill="#FA8603" style=""/>
  <path d="M 675.055 557.515 L 682.549 557.427 C 678.554 533.987 684.317 508.813 678.888 485.364 C 678.038 481.712 676.977 477.885 676.71 474.174 C 674.798 479.355 672.609 484.458 672.112 489.931 C 671.243 499.416 675.62 508.492 677.244 517.86 C 679.481 530.783 676.451 543.959 675.103 557.008 C 675.084 557.232 675.074 557.349 675.055 557.515 Z" fill="#FA8603" style=""/>
  <path d="M 515.603 559.277 C 515.603 554.174 515.635 549.069 515.698 543.959 C 515.551 549.075 515.411 554.184 515.278 559.287 L 515.603 559.277 Z" fill="#FA8603" style=""/>
  <path d="M 1001.597 113.757 C 1000.959 110.083 1000.204 106.476 999.332 102.938 C 990.06 64.744 968.354 34.263 928.604 17.766 C 925.194 16.357 921.652 15.059 917.976 13.871 C 909.609 11.164 901.062 9.081 892.399 7.639 C 809.017 -6.57 738.9 0.189 675.694 13.004 C 672.129 13.715 668.593 14.465 665.066 15.225 C 576.465 34.302 501.015 63.858 420.51 61.277 C 416.983 61.17 413.437 60.995 409.891 60.761 C 374.795 58.385 338.59 49.63 299.814 31.011 C 253.984 9.012 207.38 16.403 165.335 42.599 C 141.603 57.362 119.324 78.124 99.453 102.977 L 99.386 103.055 C 96.583 106.56 93.83 110.131 91.129 113.767 C 26.469 201.294 -9.43 332.177 20.018 433.602 C 21.076 437.256 22.223 440.866 23.459 444.431 C 31.965 469.156 44.62 491.885 61.977 511.498 C 72.048 522.844 102.882 538.075 117.708 543.086 C 190.464 567.681 631.387 590.257 867.152 549.027 C 907.219 543.316 940.04 503.073 941.059 501.416 C 993.6 416.016 1017.903 205.618 1001.597 113.757 Z" style="fill: rgb(218, 218, 218);"/>
  <path d="M 731.38 537.142 C 731.418 543.725 731.459 550.308 731.504 556.891 L 731.925 556.891 L 731.38 537.142 Z" fill="#FA8603" style=""/>
  <path d="M 750.658 538.856 L 750.658 562.228 L 258.431 562.228 L 258.431 538.856 C 258.431 535.091 261.425 532.039 265.121 532.039 L 743.967 532.039 C 747.663 532.039 750.658 535.091 750.658 538.856 Z" fill="#3f3d56" style=""/>
  <path d="M 564.061 191.491 C 567.711 195.318 571.219 199.739 571.907 205.027 C 564.127 207.101 556.166 203.206 548.892 199.73 C 526.384 188.944 502.616 181.133 478.164 176.484 C 476.253 176.124 474.208 175.725 472.764 174.381 C 470.04 171.839 470.538 165.431 473.07 162.792 C 475.804 159.949 480.86 160.358 484.54 160.153 C 514.223 158.621 543.146 170.013 564.099 191.491 L 564.061 191.491 Z" fill="#192534" style=""/>
  <path d="M 726.133 562.189 L 530.627 562.189 C 528.018 556.123 525.964 549.825 524.491 543.375 C 523.994 541.369 523.536 539.343 523.077 537.327 C 522.676 535.555 522.293 533.773 521.93 532 C 520.821 526.671 519.865 521.317 519.062 515.942 C 518.291 510.878 517.655 505.798 517.151 500.701 C 516.654 495.826 516.268 490.934 515.995 486.026 C 515.995 485.89 515.995 485.753 515.995 485.607 C 515.88 483.28 515.995 480.738 517.562 479.092 C 518.938 477.68 521.041 477.369 523.001 477.232 C 539.248 476.103 555.038 482.101 571.249 481.215 C 575.645 480.952 579.181 480.241 583.272 481.098 C 583.919 481.222 584.558 481.388 585.183 481.595 C 586.139 481.897 587.028 482.218 587.936 482.569 C 594.158 484.838 599.96 487.701 606.651 488.977 C 618.043 491.168 629.733 490.739 641.298 491.586 C 642.253 491.645 643.21 491.723 644.165 491.82 C 645.34 491.918 646.516 492.044 647.682 492.19 C 657.592 493.529 667.321 496.012 676.681 499.591 C 681.728 501.451 686.697 503.555 691.6 505.785 C 693.005 506.428 694.401 507.07 695.797 507.733 C 698.281 508.911 700.805 510.157 703.271 511.511 C 704.226 512.027 705.182 512.553 706.08 513.108 C 713.507 517.5 720.216 522.953 724.125 530.355 C 724.422 530.9 724.69 531.455 724.948 532.02 C 725.205 532.585 725.397 533.062 725.607 533.597 C 729.019 542.625 727.824 552.363 726.133 562.189 Z" fill="#202f42" style=""/>
  <path d="M 726.133 562.189 L 530.627 562.189 C 528.018 556.123 525.964 549.825 524.491 543.375 C 523.994 541.369 523.536 539.343 523.077 537.327 C 522.676 535.555 522.293 533.773 521.93 532 C 520.821 526.671 519.865 521.317 519.062 515.942 C 518.291 510.878 517.655 505.798 517.151 500.701 C 516.654 495.826 516.268 490.934 515.995 486.026 C 515.995 485.89 515.995 485.753 515.995 485.607 C 515.88 483.28 515.995 480.738 517.562 479.092 C 518.938 477.68 521.041 477.369 523.001 477.232 C 539.248 476.103 555.038 482.101 571.249 481.215 C 575.645 480.952 579.181 480.241 583.272 481.098 C 583.919 481.222 584.558 481.388 585.183 481.595 C 586.139 481.897 587.028 482.218 587.936 482.569 C 594.158 484.838 599.96 487.701 606.651 488.977 C 618.043 491.168 629.733 490.739 641.298 491.586 C 642.253 491.645 643.21 491.723 644.165 491.82 C 645.34 491.918 646.516 492.044 647.682 492.19 C 657.592 493.529 667.321 496.012 676.681 499.591 C 681.728 501.451 686.697 503.555 691.6 505.785 C 693.005 506.428 694.401 507.07 695.797 507.733 C 698.281 508.911 700.805 510.157 703.271 511.511 C 704.226 512.027 705.182 512.553 706.08 513.108 C 713.507 517.5 720.216 522.953 724.125 530.355 C 724.422 530.9 724.69 531.455 724.948 532.02 C 725.205 532.585 725.397 533.062 725.607 533.597 C 729.019 542.625 727.824 552.363 726.133 562.189 Z" opacity="0.1" style=""/>
  <path d="M 547.698 562.189 L 327.343 562.189 C 322.391 556.638 319.152 549.403 319.954 542.031 C 320.242 538.966 320.747 535.926 321.465 532.935 C 321.541 532.614 321.627 532.302 321.712 531.961 C 323.125 526.3 326.632 521.414 331.499 518.328 C 340.179 512.65 350.615 510.43 360.173 506.749 C 365.306 504.801 370.257 502.338 375.389 500.38 C 382.771 497.668 390.392 495.685 398.147 494.459 C 399.007 494.313 399.876 494.167 400.736 494.04 C 401.597 493.914 402.505 493.758 403.394 493.631 C 408.172 492.93 412.952 492.356 417.778 491.791 C 428.292 490.535 438.968 489.288 449.549 490.243 C 458.002 491.137 466.323 493.039 474.341 495.91 C 480.382 497.965 486.346 500.351 492.272 502.727 C 501.514 506.447 510.833 510.255 519.081 515.835 C 519.798 516.322 520.496 516.809 521.194 517.325 C 526.683 521.386 531.497 526.318 535.455 531.932 C 537.749 535.151 539.768 538.565 541.485 542.138 C 544.524 548.47 546.617 555.227 547.698 562.189 Z" fill="#202f42" style=""/>
  <path d="M 484.865 169.58 C 481.252 177.653 475.125 184.966 466.915 187.936 C 462.547 189.514 457.835 189.796 453.382 191.092 C 448.927 192.387 444.435 195.065 442.868 199.496 C 442.292 201.437 442.014 203.457 442.045 205.485 C 441.367 224.523 440.812 244.311 448.277 261.782 C 454.729 276.857 466.551 288.767 478.231 300.122 C 491.9 313.405 506.37 326.873 524.348 332.813 C 534.862 336.27 547.239 336.65 555.936 329.765 C 559.511 326.931 562.168 323.104 564.778 319.326 C 570.513 310.999 576.343 302.556 579.955 293.032 C 587.363 273.556 584.869 251.859 582.259 231.165 C 582.243 229.936 581.788 228.755 580.979 227.844 C 579.965 226.977 578.483 227.094 577.155 227.172 C 567.855 227.737 557.705 222.877 554.589 213.938 C 553.251 210.042 553.289 205.874 553.356 201.784 L 553.72 178.198 C 553.72 175.656 553.786 173.027 552.849 170.661 C 551.215 166.551 547.115 164.146 543.186 162.159 C 530.52 155.704 517.317 150.405 503.732 146.325 C 497.787 144.543 493.266 141.572 490.618 148.078 C 487.818 154.846 487.942 162.695 484.865 169.58 Z" fill="#fbbebe" style=""/>
  <path d="M 484.865 169.58 C 481.252 177.653 475.125 184.966 466.915 187.936 C 462.547 189.514 457.835 189.796 453.382 191.092 C 448.927 192.387 444.435 195.065 442.868 199.496 C 442.292 201.437 442.014 203.457 442.045 205.485 C 441.367 224.523 440.812 244.311 448.277 261.782 C 454.729 276.857 466.551 288.767 478.231 300.122 C 491.9 313.405 506.37 326.873 524.348 332.813 C 534.862 336.27 547.239 336.65 555.936 329.765 C 559.511 326.931 562.168 323.104 564.778 319.326 C 570.513 310.999 576.343 302.556 579.955 293.032 C 587.363 273.556 584.869 251.859 582.259 231.165 C 582.243 229.936 581.788 228.755 580.979 227.844 C 579.965 226.977 578.483 227.094 577.155 227.172 C 567.855 227.737 557.705 222.877 554.589 213.938 C 553.251 210.042 553.289 205.874 553.356 201.784 L 553.72 178.198 C 553.72 175.656 553.786 173.027 552.849 170.661 C 551.215 166.551 547.115 164.146 543.186 162.159 C 530.52 155.704 517.317 150.405 503.732 146.325 C 497.787 144.543 493.266 141.572 490.618 148.078 C 487.818 154.846 487.942 162.695 484.865 169.58 Z" opacity="0.1" style=""/>
  <circle cx="448.16" cy="114.69" r="74" fill="#fbbebe" style="" transform="matrix(0.955783, 0, 0, 0.97383, 119.211162, 4.983019)"/>
  <path d="M 554.274 229.655 L 546.37 249.648 C 544.582 254.167 542.766 258.734 540.013 262.717 C 532.415 273.692 517.447 278.717 504.965 274.49 C 493.18 270.527 482.724 259.289 470.557 261.987 C 464.249 263.389 459.221 268.55 456.411 274.471 C 453.601 280.392 452.703 287.053 452.1 293.607 C 449.32 323.921 452.156 354.498 460.464 383.744 C 461.324 386.763 462.375 389.928 464.66 392.012 C 467.451 394.505 471.455 394.875 475.173 395.09 C 492.377 396.135 509.613 396.752 526.881 396.94 C 537.49 397.066 548.147 397.028 558.622 395.353 C 569.098 393.678 579.124 390.483 589.456 388.38 C 599.119 386.432 609.012 385.527 618.454 382.693 C 619.993 382.235 621.618 381.651 622.564 380.346 C 623.296 379.1 623.631 377.654 623.52 376.207 C 623.52 370.598 621.81 365.144 619.955 359.866 C 615.176 346.398 609.594 333.144 606.937 319.092 C 603.277 299.761 605.427 279.847 605.025 260.156 C 604.892 253.105 604.414 245.938 602.034 239.306 C 599.655 232.674 595.152 226.578 588.816 223.725 C 577.891 218.768 559.501 216.548 554.274 229.655 Z" fill="#BB2233" style=""/>
  <path d="M 517.926 324.263 C 512.879 319.9 513.146 312.119 512.544 305.4 C 511.445 292.798 506.064 281.054 500.768 269.602 L 484.951 235.362 C 478.337 221.086 471.569 204.832 477.027 190.04 C 478.853 185.054 481.978 180.613 483.584 175.549 C 485.189 170.485 484.865 164.156 480.793 160.815 C 475.613 156.569 467.957 159.462 462.098 162.685 C 451.326 168.638 440.941 175.29 431.006 182.6 C 428.311 184.548 425.482 186.856 424.603 190.128 C 424.058 192.163 424.345 194.393 423.58 196.36 C 422.089 200.255 417.444 201.424 413.477 202.339 C 380.438 210.099 351.989 231.371 334.817 261.159 C 331.998 265.942 329.751 271.052 328.126 276.38 C 326.215 283.197 325.717 290.276 325.258 297.317 C 324.035 315.43 322.856 333.534 321.722 351.628 C 321.216 359.642 320.719 367.852 322.869 375.574 C 324.255 380.541 326.692 385.186 327.725 390.25 C 329.818 400.777 325.402 411.528 319.888 420.682 C 314.372 429.836 307.586 438.425 304.126 448.524 C 302.093 454.95 301.048 461.658 301.029 468.409 C 300.521 491.195 306.719 513.614 318.826 532.779 C 330.573 534.542 339.366 522.642 350.156 517.588 C 365.975 510.196 385.95 516.117 400.814 506.983 C 404.445 504.753 407.59 501.714 411.432 499.874 C 414.921 498.208 418.792 497.614 422.605 497.05 C 436.694 494.975 450.963 493.057 465.118 494.615 C 485.189 496.826 505.94 505.911 524.816 498.579 C 529.471 496.767 533.734 494.031 538.407 492.268 C 555.611 485.773 574.727 493.534 593.05 492.103 C 590.182 491.947 588.902 488.636 588.367 485.724 C 587.162 479.265 586.098 472.772 585.174 466.247 C 584.361 460.589 583.663 454.776 584.935 449.215 C 586.101 444.054 588.892 439.477 591.234 434.744 C 598.622 419.844 601.747 403.133 608.084 387.727 C 611.095 380.385 614.774 373.373 618.35 366.303 C 632.781 337.283 644.022 306.727 651.869 275.192 C 643.524 259.932 635.964 244.029 627.62 228.779 C 625.202 224.358 622.717 219.859 619.018 216.44 C 613.723 211.493 606.545 209.341 599.635 207.345 C 593.699 205.621 587.678 203.888 581.475 203.878 C 575.272 203.868 557.819 197.266 553.633 201.872 C 549.313 206.624 559.033 221.972 558.814 228.438 C 558.594 234.904 559.292 241.448 558.24 247.837 C 556.711 257.156 551.55 265.463 549.208 274.598 C 548.282 278.921 547.571 283.289 547.076 287.686 C 545.515 297.518 542.989 307.164 539.535 316.482 C 538.905 318.444 537.973 320.292 536.773 321.955 C 532.242 327.603 524.96 325.461 517.926 324.263 Z" fill="#192534" style=""/>
  <path d="M 658.348 426.875 C 660.165 429.135 662.649 430.683 664.896 432.485 C 673.737 439.545 678.936 450.286 686.745 458.515 C 690.683 462.673 695.261 466.15 699.457 470.036 C 709.215 479.092 716.776 490.281 724.25 501.364 C 726.162 504.188 728.073 507.08 729.029 510.362 C 730.701 515.961 729.344 522.204 726.295 527.17 C 723.246 532.137 718.649 535.935 713.689 538.915 C 711.099 540.479 708.399 541.846 705.612 543.005 C 699.877 545.381 694.41 538.944 697.64 533.568 C 699.692 530.198 701.568 526.719 703.261 523.148 C 704.341 521.168 704.962 518.964 705.077 516.702 C 705 512.728 701.922 509.359 698.386 507.694 C 694.85 506.028 690.864 505.746 686.993 505.259 C 665.103 502.563 644.275 494.12 626.55 480.757 C 616.514 473.162 606.842 462.031 608.438 449.4 C 609.623 439.973 616.944 432.475 624.983 427.645 C 631.511 423.742 638.692 421.101 646.162 419.854 C 648.266 419.504 653.541 418.033 655.424 419.513 C 657.096 420.779 656.781 424.928 658.348 426.875 Z" fill="#fbbebe" style=""/>
  <path d="M 658.348 426.875 C 660.165 429.135 662.649 430.683 664.896 432.485 C 673.737 439.545 678.936 450.286 686.745 458.515 C 690.683 462.673 695.261 466.15 699.457 470.036 C 709.215 479.092 716.776 490.281 724.25 501.364 C 726.162 504.188 728.073 507.08 729.029 510.362 C 730.701 515.961 729.344 522.204 726.295 527.17 C 723.246 532.137 718.649 535.935 713.689 538.915 C 711.099 540.479 708.399 541.846 705.612 543.005 C 699.877 545.381 694.41 538.944 697.64 533.568 C 699.692 530.198 701.568 526.719 703.261 523.148 C 704.341 521.168 704.962 518.964 705.077 516.702 C 705 512.728 701.922 509.359 698.386 507.694 C 694.85 506.028 690.864 505.746 686.993 505.259 C 665.103 502.563 644.275 494.12 626.55 480.757 C 616.514 473.162 606.842 462.031 608.438 449.4 C 609.623 439.973 616.944 432.475 624.983 427.645 C 631.511 423.742 638.692 421.101 646.162 419.854 C 648.266 419.504 653.541 418.033 655.424 419.513 C 657.096 420.779 656.781 424.928 658.348 426.875 Z" opacity="0.1" style=""/>
  <path d="M 578.665 75.956 C 569.107 85.928 553.758 86.347 540.07 86.103 L 540.52 80.64 L 521.27 87.671 C 526.261 83.892 530.541 79.228 533.906 73.901 C 531.411 71.671 527.502 71.739 524.54 73.278 C 521.576 74.816 519.397 77.533 517.533 80.338 C 506.462 97.234 503.868 118.463 510.537 137.609 C 506.714 139.771 501.839 139.138 498.169 136.781 C 494.499 134.424 491.938 130.588 490.198 126.536 C 489.06 123.888 487.875 120.752 485.161 119.924 C 482.886 119.233 480.382 120.645 479.121 122.7 C 477.988 124.845 477.532 127.292 477.811 129.711 C 478.164 135.379 482.227 140.754 483.039 146.364 C 483.852 151.973 492.071 156.336 487.818 159.997 C 486.595 161.059 474.045 163.951 472.459 163.698 C 470.308 163.357 468.884 161.244 467.985 159.228 C 463.703 149.645 465.242 138.446 462.71 128.241 C 460.673 120.031 456.086 112.747 451.565 105.638 C 450.351 103.567 448.918 101.637 447.293 99.883 C 445.792 98.383 443.938 97.088 443.211 95.082 C 442.486 93.076 443.823 90.213 445.897 90.534 C 442.55 87.236 438.948 84.217 435.126 81.507 C 438.91 76.625 442.613 71.681 446.232 66.675 C 447.474 64.961 448.765 62.78 447.856 60.832 C 447.326 59.94 446.579 59.202 445.687 58.69 L 435.804 51.873 C 435.585 47.247 444.827 48.951 446.251 44.579 C 446.502 43.417 446.416 42.206 446.003 41.093 L 442.638 28.589 L 455.417 34.49 C 456.966 35.211 458.619 35.941 460.31 35.688 C 463.684 35.191 465.309 31.121 465.482 27.644 C 465.653 24.167 465.109 20.428 466.8 17.399 C 472.586 17.166 478.369 17.207 484.148 17.526 C 484.513 14.563 483.743 11.57 481.997 9.17 L 524.702 6.755 C 531.995 6.346 539.488 5.967 546.417 8.304 C 548.768 9.102 551.139 10.251 553.604 9.969 C 556.071 9.687 558.556 7.369 557.848 4.954 C 564.249 8.636 570.103 13.226 575.234 18.587 C 576.619 20.268 578.294 21.677 580.175 22.746 C 582.086 23.661 584.705 23.622 586.159 22.006 C 587.325 20.71 587.907 18.451 589.628 18.373 C 590.699 18.373 591.54 19.23 592.218 20.097 C 594.66 23.279 596.648 26.797 598.125 30.546 C 601.19 30.125 604.19 29.321 607.062 28.15 C 604.079 30.712 604.003 35.483 605.427 39.184 C 606.851 42.884 609.432 46.001 611.162 49.545 C 612.884 53.352 614.04 57.399 614.593 61.553 C 615.463 66.753 615.472 73.307 610.942 75.858 C 607.004 78.079 602.12 75.712 598.517 72.937 C 588.596 65.36 586.703 67.581 578.665 75.956 Z" style="fill: rgb(33, 107, 18);"/>
  <path d="M 628.643 536.052 L 694.869 529.965 C 700.402 529.46 704.55 524.584 704.254 518.932 L 704.207 517.958 C 703.983 513.521 701.043 509.708 696.866 508.434 L 686.162 505.162 C 685.197 504.867 684.196 504.716 683.189 504.714 L 658.903 504.714 C 658.239 504.716 657.576 504.781 656.925 504.908 C 651.792 505.931 628.175 510.664 627.296 511.53 C 626.827 512.017 624.017 514.16 621.302 516.205 C 617.982 518.704 616.444 522.98 617.393 527.073 L 617.594 527.969 C 618.768 533.104 623.492 536.56 628.643 536.052 Z" fill="#464a5f" style=""/>
  <path d="M 596.299 514.958 L 623.061 507.168 L 672.761 500.351 C 672.761 500.351 704.303 491.586 707.17 518.854 L 704.494 523.47 C 704.494 523.47 707.17 506.194 674.673 511.063 C 674.673 511.063 616.246 509.067 618.703 532.487 C 618.703 532.468 598.211 528.592 596.299 514.958 Z" fill="#BB2233" style=""/>
  <ellipse cx="632.619" cy="497.439" rx="6.69" ry="0.974" fill="#BB2233" style=""/>
  <rect x="568.366" y="492.943" width="4.779" height="8.764" fill="#BB2233" style="" transform="matrix(1, 0, 0, 1, 119.211162, 4.983019)"/>
  <rect x="511.018" y="492.943" width="4.779" height="8.764" fill="#BB2233" style="" transform="matrix(1, 0, 0, 1, 119.211162, 4.983019)"/>
  <ellipse cx="675.5" cy="668.09" rx="2.428" ry="7.664" transform="matrix(0.351914, -0.936032, 0.931634, 0.363614, -171.142139, 885.296331)" fill="#BB2233" style=""/>
  <path d="M 418.552 513.527 C 420.597 515.698 422.682 517.909 425.309 519.272 C 427.911 520.449 430.679 521.195 433.511 521.483 C 462.464 526.028 491.316 531.111 520.066 536.733 C 528.162 538.33 536.315 539.986 543.96 543.19 C 547.86 544.835 551.607 546.88 555.43 548.604 C 577.413 558.43 602.263 557.797 626.244 556.979 C 630.937 556.823 635.801 556.629 640.036 554.632 C 643.199 553.162 646.096 550.367 646.383 546.842 C 646.879 540.716 640.045 537.103 634.588 534.464 C 621.561 528.202 610.206 518.016 603.343 505.103 C 602.12 502.824 601.126 499.757 602.847 497.829 C 604.137 496.387 606.326 496.378 608.247 496.456 C 616.275 496.774 624.304 496.689 632.333 496.202 C 636.49 495.939 641.995 493.933 641.336 489.756 C 641.049 487.964 639.596 486.63 638.22 485.461 C 630.985 479.267 622.774 472.889 613.322 473.074 C 608.361 473.171 603.63 475.099 598.985 476.726 C 573.963 485.373 547.019 485.851 520.61 485.675 C 514.15 485.675 507.641 485.549 501.314 484.205 C 496.116 482.952 491.025 481.282 486.088 479.209 C 470.07 472.986 453.983 466.725 439.15 457.989 C 433.253 454.522 426.677 450.51 420.101 452.292 C 417.15 453.268 414.467 454.936 412.263 457.162 C 404.436 464.368 397.831 473.191 400.059 484.253 C 402.323 495.881 410.772 505.249 418.552 513.527 Z" fill="#fbbebe" style=""/>
  <path d="M 414.29 325.461 C 416.755 333.592 418.199 342.201 422.442 349.534 C 426.945 357.324 434.438 363.362 437.038 372 C 438.872 378.116 437.993 384.66 437.993 391.077 C 437.993 398.352 439.341 405.85 443.288 411.908 C 445.276 414.965 447.866 417.556 450.131 420.409 C 460.177 433.069 463.273 449.975 464.525 466.179 C 454.968 460.667 443.785 454.98 433.434 458.768 C 429.248 460.307 425.711 463.267 422.423 466.335 C 416.043 472.271 410.211 478.79 404.999 485.812 C 402.266 489.483 399.58 493.972 400.765 498.413 C 395.107 490.038 389.372 481.605 384.976 472.392 C 381.86 465.809 379.442 458.856 375.705 452.604 C 371.002 444.745 364.379 438.289 358.807 431.043 C 346.285 414.761 339.26 394.603 335.849 374.259 C 332.437 353.916 332.293 333.076 332.399 312.392 C 332.399 305.575 332.542 298.486 335.361 292.282 C 337.034 288.592 339.586 285.397 342.119 282.252 C 345.33 278.249 348.637 274.169 353.005 271.54 C 366.902 263.204 381.813 277.022 391.103 286.478 C 401.817 297.367 409.775 310.744 414.29 325.461 Z" fill="#192534" style=""/>
  <path d="M 653.866 278.717 C 655.154 279.914 656.194 281.36 656.925 282.973 C 657.651 284.92 657.46 287.063 657.307 289.137 C 656.401 301.488 657.261 313.907 659.858 326.006 C 661.416 333.32 663.385 341.782 658.808 347.635 C 658.1 348.404 657.46 349.235 656.896 350.118 C 654.774 354.169 658.692 358.581 661.675 362.057 C 670.735 372.769 672.188 389.529 665.163 401.751 C 663.835 404.078 662.21 406.279 661.464 408.85 C 660.961 410.965 660.762 413.142 660.872 415.316 L 660.91 431.608 C 650.865 430.235 639.634 429.164 631.559 435.406 C 624.743 440.665 622.048 449.819 616.265 456.188 C 610.655 462.323 601.928 466.277 599.74 474.359 L 599.855 440.694 C 599.997 436.221 599.761 431.745 599.147 427.314 C 598 420.351 595.028 413.836 593.288 407 C 591.013 398.06 590.87 388.721 590.737 379.479 C 590.517 364.219 590.307 348.794 593.413 333.865 C 594.684 327.788 596.49 321.838 597.886 315.791 C 600.419 304.884 601.709 293.529 606.153 283.284 C 610.598 273.039 619.324 263.749 630.277 262.649 C 641.814 261.47 646.707 271.092 653.866 278.717 Z" fill="#192534" style=""/>
  <ellipse cx="677" cy="658.09" rx="6.722" ry="12.6" transform="matrix(0.861928, -0.507031, 0.493066, 0.870142, -217.568666, 256.86134)" fill="#fbbebe" style=""/>
  <ellipse cx="677" cy="658.09" rx="6.722" ry="12.6" transform="matrix(0.861928, -0.507031, 0.493066, 0.870142, -217.568666, 256.86134)" opacity="0.1" style=""/>
</svg>